<?xml version="1.0" standalone="no"?>
<!DOCTYPE svg PUBLIC "-//W3C//DTD SVG 20010904//EN"
 "http://www.w3.org/TR/2001/REC-SVG-20010904/DTD/svg10.dtd">
<svg version="1.0" xmlns="http://www.w3.org/2000/svg"
 width="7498.000000pt" height="7498.000000pt" viewBox="0 0 7498.000000 7498.000000"
 preserveAspectRatio="xMidYMid meet">
<metadata>
Created by potrace 1.11, written by Peter Selinger 2001-2013
</metadata>
<g transform="translate(0.000000,7498.000000) scale(0.100000,-0.100000)"
fill="#000000" stroke="none">
<path d="M5225 74959 c-1137 -16 -1746 -81 -2365 -253 -169 -47 -199 -57 -320
-106 -248 -99 -475 -219 -710 -375 -222 -148 -400 -294 -601 -495 -315 -314
-547 -635 -743 -1029 -136 -272 -203 -459 -285 -801 -94 -389 -146 -778 -183
-1385 -19 -310 -19 -65726 0 -66045 43 -713 109 -1153 247 -1637 111 -387 333
-816 610 -1183 423 -557 1015 -1009 1665 -1270 121 -49 151 -59 320 -106 527
-147 1036 -212 1915 -246 487 -19 64930 -19 65425 0 880 33 1391 99 1920 246
169 47 199 57 320 106 730 293 1367 812 1807 1470 198 298 371 655 457 945
142 480 213 942 258 1670 19 310 19 65726 0 66045 -43 713 -109 1153 -247
1637 -121 421 -363 874 -681 1273 -137 172 -420 454 -594 594 -302 241 -652
447 -1000 586 -121 49 -151 59 -320 106 -511 142 -996 206 -1860 246 -194 9
-7976 12 -32390 13 -17674 1 -32364 -2 -32645 -6z m24500 -25747 c83 -7 249
-21 370 -33 2853 -264 5139 -1608 6448 -3790 687 -1146 1073 -2440 1189 -3989
9 -115 13 -367 13 -740 -1 -592 -7 -725 -56 -1150 -284 -2468 -1480 -4481
-3439 -5790 -690 -461 -1502 -840 -2347 -1095 -889 -270 -1788 -418 -2818
-465 -129 -6 -979 -10 -2057 -10 l-1838 0 0 -3205 0 -3205 -3455 0 -3455 0 0
11745 0 11745 5648 -3 c4292 -2 5683 -6 5797 -15z m27035 -2732 l0 -2750
-4830 0 -4830 0 0 -1890 0 -1890 4530 0 4530 0 0 -2475 0 -2475 -4530 0 -4530
0 0 -1880 0 -1880 4830 0 4830 0 0 -2750 0 -2750 -8285 0 -8285 0 0 11745 0
11745 8285 0 8285 0 0 -2750z"/>
<path d="M25190 40636 l0 -3386 1043 0 c573 0 1121 5 1217 10 684 39 1201 162
1695 404 361 177 650 398 894 681 412 479 641 1067 723 1855 19 190 16 746 -5
940 -70 625 -233 1111 -512 1530 -118 178 -193 269 -339 415 -286 286 -704
539 -1136 690 -319 111 -616 173 -1085 226 -67 8 -495 13 -1297 16 l-1198 4 0
-3385z"/>
</g>
</svg>
